<?xml version="1.0" standalone="no"?>
<!DOCTYPE svg PUBLIC "-//W3C//DTD SVG 20010904//EN"
 >
<svg version="1.0" xmlns="http://www.w3.org/2000/svg"
 width="1270.000000pt" height="1349.000000pt" viewBox="0 0 1270.000000 1349.000000"
 preserveAspectRatio="xMidYMid meet">
<metadata>
Created by potrace 1.15, written by Peter Selinger 2001-2017
</metadata>
<g transform="translate(0.000000,1349.000000) scale(0.100000,-0.100000)"
fill="#000000" stroke="none">
<path d="M750 11335 l0 -1405 430 0 430 0 0 -3175 0 -3175 -425 0 -425 0 0
-1420 0 -1420 2595 0 2595 0 0 1420 0 1420 -390 0 -390 0 0 890 0 890 1145 0
1145 0 0 -885 0 -885 -390 0 -390 0 0 -1425 0 -1425 2630 0 2630 0 0 1425 0
1425 -460 0 -460 0 0 3190 0 3190 465 0 465 0 0 1385 0 1385 -2640 0 -2640 0
0 -1385 0 -1385 395 0 395 0 0 -880 0 -880 -1145 0 -1145 0 0 855 0 855 123 0
c68 0 246 3 395 7 l272 6 0 1404 0 1403 -2605 0 -2605 0 0 -1405z m4910 0 l0
-1115 -389 0 -389 0 -6 -22 c-3 -13 -6 -533 -6 -1155 l0 -1133 1445 0 1445 0
0 1180 0 1180 -395 0 -395 0 0 1090 0 1090 2340 0 2340 0 0 -1090 0 -1090
-465 0 -465 0 0 -3490 0 -3490 460 0 460 0 0 -1125 0 -1125 -2330 0 -2330 0 0
1125 0 1125 390 0 390 0 0 1185 0 1185 -1445 0 -1445 0 0 -1185 0 -1185 390 0
390 0 0 -1125 0 -1125 -2295 0 -2295 0 0 1125 0 1125 425 0 425 0 0 3465 0
3465 -435 0 -435 0 0 1115 0 1115 2310 0 2310 0 0 -1115z"/>
<path d="M1430 11336 l0 -724 268 -4 c242 -4 273 -6 326 -26 133 -49 198 -138
244 -337 15 -64 16 -385 19 -3529 3 -3158 2 -3465 -13 -3515 -22 -76 -55 -130
-115 -186 -101 -94 -189 -115 -496 -115 l-223 0 0 -735 0 -735 1910 0 1910 0
0 734 0 734 -222 5 c-242 5 -289 13 -381 65 -58 32 -117 103 -144 172 -17 42
-18 137 -21 1478 l-2 1432 1825 0 1825 0 -2 -1448 -3 -1447 -35 -70 c-27 -55
-46 -77 -83 -102 -88 -59 -126 -66 -399 -71 l-248 -4 0 -739 0 -739 1945 0
1945 0 0 739 0 739 -302 4 c-284 4 -307 6 -365 27 -111 40 -185 125 -227 260
l-21 66 -3 3520 c-2 2498 1 3535 9 3572 15 77 77 163 151 212 106 71 125 74
466 79 l302 3 0 705 0 704 -1960 0 -1960 0 0 -705 0 -705 218 0 c150 0 238 -5
285 -15 92 -19 181 -68 223 -123 68 -89 64 3 64 -1569 l0 -1423 -1825 0 -1825
0 0 1344 c0 1462 -1 1438 55 1553 37 74 108 134 192 163 62 21 90 24 306 28
l237 4 0 724 0 724 -1925 0 -1925 0 0 -724z"/>
</g>
</svg>
